<?xml version="1.0" encoding="UTF-8"?>
<svg width="96px" height="96px" viewBox="0 0 96 96" version="1.1" xmlns="http://www.w3.org/2000/svg" xmlns:xlink="http://www.w3.org/1999/xlink">
    <!-- Generator: Sketch 63 (92445) - https://sketch.com -->
    <title>Shape Copy 2</title>
    <desc>Created with Sketch.</desc>
    <defs>
        <linearGradient x1="-18.9963811%" y1="50%" x2="120.450331%" y2="50%" id="linearGradient-1">
            <stop stop-color="#005F92" offset="0%"></stop>
            <stop stop-color="#00B5FF" offset="100%"></stop>
        </linearGradient>
    </defs>
    <g id="Page-1" stroke="none" stroke-width="1" fill="none" fill-rule="evenodd">
        <g id="certificate_sample" transform="translate(-202.000000, -701.000000)" fill="url(#linearGradient-1)" fill-rule="nonzero">
            <path d="M260.332896,716.724138 L260.568723,716.876715 C264.315528,719.300856 267.269595,722.050084 269.428219,725.125163 C271.658227,728.301932 273.190661,732.191788 274.027669,736.791411 L274.060934,736.98352 L281.842894,736.98402 L281.880625,737.305455 C282.57684,743.236505 282.353277,749.072065 281.209807,754.810696 C281.160824,755.056522 281.095347,755.321559 281.013369,755.605849 L280.907074,755.956243 C280.888038,756.016183 280.868342,756.076894 280.847985,756.138377 L280.717923,756.516528 C280.694925,756.581097 280.671267,756.646437 280.646948,756.71255 L280.493111,757.118497 L280.323421,757.542996 C280.293818,757.615293 280.263555,757.688363 280.232631,757.762208 L280.039155,758.214566 L279.82982,758.685517 L279.60462,759.17508 L279.363555,759.683269 L279.10662,760.210104 L278.833813,760.755599 L278.545131,761.319773 L278.240571,761.902641 L277.92013,762.504222 L277.583804,763.124531 L277.231592,763.763586 L276.86349,764.421404 L276.281537,765.443347 L275.873698,766.148144 L275.603623,766.609998 L281.457217,771.75966 L281.237106,772.032902 C276.667907,777.705023 271.839523,781.906328 266.75053,784.633599 C259.332512,788.60903 252.020925,790.381157 244.821062,789.944432 L244.67552,789.934473 L243.414659,797 L239.092812,796.579293 L241.760786,785.712886 L242.068291,785.740203 C249.866231,786.432908 256.509605,785.454095 262.003276,782.809569 C267.340431,780.240385 271.682,776.754938 275.032373,772.351428 L275.162752,772.176803 L270.604472,767.196234 L270.80248,766.951046 C274.365195,762.53943 276.631254,758.269828 277.605697,754.144047 C278.5168,750.286448 278.865053,745.869358 278.648894,740.892977 L278.634885,740.606315 L271.159627,740.469061 L271.124997,740.150392 C270.613194,735.440739 269.110358,731.360884 266.616754,727.904369 C264.347909,724.759406 262.411091,722.753082 260.831807,721.88826 L260.675071,721.805583 L260.572867,721.755685 L255.342738,726.461362 L255.122471,726.346681 C252.725353,725.098631 249.951593,724.472803 246.796707,724.471423 C244.020083,724.470208 241.745875,724.954717 239.970131,725.918659 L239.731073,726.053077 L239.5135,726.183627 L239.592842,726.3595 L239.929991,727.062706 L240.345333,727.898315 L240.973058,729.133061 L241.555773,730.260124 L241.060559,730.670482 L240.546122,731.103014 L240.059733,731.519517 L239.601417,731.91995 L239.171198,732.304275 L238.769098,732.672454 C238.704426,732.73247 238.640927,732.791811 238.578601,732.850476 L238.218725,733.194363 L237.887029,733.522006 C237.834096,733.575257 237.782338,733.62783 237.731755,733.679724 L237.442372,733.982929 C237.350616,734.081277 237.263566,734.176901 237.181227,734.269795 L236.948344,734.540281 L236.743746,734.79435 C236.712005,734.835325 236.681443,734.875614 236.652061,734.915216 C236.028727,735.755386 235.453839,736.939447 234.931412,738.465735 L234.820268,738.798034 L234.737513,739.054313 L239.589013,739.362874 L238.523943,742.450967 L230.965517,741.92594 L231.053421,741.514525 C231.734317,738.327718 232.547581,735.923447 233.500498,734.296079 C234.397879,732.763553 235.761309,731.138634 237.590314,729.417968 L237.690125,729.324063 L237.015945,728.287634 L236.651,727.716341 L236.328359,727.201634 L236.04701,726.741146 L235.805943,726.332512 L235.667109,726.087728 L235.545428,725.864236 L235.440601,725.661336 L235.352326,725.478327 L235.280304,725.314507 C235.269638,725.288764 235.259637,725.263791 235.250295,725.239574 L235.202091,725.103223 C235.161688,724.975707 235.144541,724.874345 235.1493,724.795983 L235.153498,724.758704 L235.16081,724.726844 L235.20195,724.640723 C235.20686,724.631069 235.211093,724.623271 235.215093,724.616584 L235.239858,724.583861 L235.290521,724.533078 C235.460586,724.375083 235.728509,724.170422 236.071724,723.941437 L236.38382,723.739729 C236.878043,723.429794 237.486069,723.090202 238.159935,722.768436 C240.233052,721.778538 242.669143,721.052596 245.446456,720.730206 C246.143316,720.649314 247.05249,720.683542 248.176217,720.832472 L248.670957,720.90332 L249.192008,720.988207 L249.739409,721.087123 C249.926272,721.122433 250.117533,721.16008 250.313199,721.200064 L250.913417,721.32702 L251.540104,721.467984 L252.193296,721.622951 L252.873035,721.791911 L253.579359,721.974858 L254.493026,722.221286 L260.332896,716.724138 Z M204.997774,710.103448 L205.006012,710.106386 L205.013933,710.107372 L205.017275,710.110407 L205.066605,710.128963 C205.12849,710.152332 205.170532,710.170247 205.201703,710.191531 L205.229581,710.214265 L205.252335,710.241826 L205.780394,710.710949 L207.922125,712.560757 L214.506283,718.195554 L214.323219,718.466828 C210.462398,724.188028 207.988997,729.94178 206.899919,735.72915 C205.847933,741.319409 205.729027,746.889614 206.543058,752.441451 L206.593048,752.767692 L214.219558,753.21178 L214.285287,753.47037 C215.677216,758.946471 218.190193,763.581569 221.825647,767.381784 C225.131952,770.837933 229.060909,773.68968 233.614368,775.937489 L233.830258,776.042071 L237.688763,768.748471 L237.989482,768.86698 C241.466168,770.237099 244.925892,770.69755 248.373899,770.25066 C253.470224,769.590133 257.110002,768.47235 259.285932,766.916158 L259.468855,766.781697 L259.567873,766.704721 L256.845589,761.507893 L257.064528,761.318192 C259.5739,759.143924 261.488865,756.873246 262.811527,754.507088 C264.056972,752.279063 264.928424,749.808766 265.425624,747.094587 L265.458882,746.902005 L264.820208,746.784084 L263.629439,746.582946 L261.253893,746.204436 L259.890387,745.994437 L259.904509,745.667002 C260.004596,743.346449 259.82712,741.374823 259.375022,739.753204 C258.983872,738.350196 258.252442,737.137225 257.176141,736.10919 L256.945939,735.897088 L255.069491,737.352459 L253.109757,735.386325 L257.449149,732.223165 L257.667824,732.437548 C257.931564,732.696112 258.184389,732.949444 258.426304,733.197571 L258.895588,733.686893 C260.487174,735.375288 261.544272,736.80954 262.068225,737.999029 C262.648068,739.315402 262.980864,741.007883 263.071349,743.07816 L263.085792,743.502622 L264.618745,743.680649 L265.523679,743.792191 L266.491689,743.921221 L266.988778,743.993904 L267.286434,744.040667 L267.683688,744.10861 L268.023514,744.174316 L268.219079,744.217103 L268.467319,744.280092 L268.603544,744.321489 L268.716995,744.362566 C268.78516,744.389873 268.83851,744.417058 268.877777,744.444299 L268.904598,744.464743 L268.925273,744.484225 C269.014,744.5786 269.047541,744.845823 269.029975,745.249326 L269.01535,745.482715 L268.990735,745.741816 C268.985808,745.787069 268.980471,745.833338 268.974727,745.880596 L268.935403,746.175793 L268.886458,746.493405 L268.828038,746.832114 L268.76029,747.1906 L268.683362,747.567547 L268.5974,747.961634 L268.502553,748.371543 L268.398966,748.795956 L268.227522,749.456884 L268.102732,749.911786 L267.900172,750.612266 L267.755098,751.089415 L267.602167,751.573155 L267.441528,752.062168 C267.41412,752.144036 267.386398,752.226069 267.358363,752.308239 L267.186436,752.802688 L267.007167,753.299113 L266.820705,753.796195 L266.627195,754.292615 L266.426786,754.787055 L266.219624,755.278196 C266.184543,755.359705 266.149186,755.441021 266.113557,755.522117 C265.896725,756.015657 265.591495,756.568544 265.197716,757.181318 L264.922076,757.598712 C264.873949,757.669759 264.824728,757.741546 264.774414,757.814074 L264.4594,758.258151 C264.40471,758.333648 264.348925,758.409889 264.292046,758.486874 L263.937636,758.957712 L263.556949,759.446436 C263.425672,759.612329 263.290015,759.781208 263.149975,759.953081 L262.716705,760.477682 C262.642301,760.566614 262.566801,760.656295 262.490205,760.746727 L262.017472,761.298329 C261.936489,761.391766 261.854411,761.485954 261.771235,761.580895 L261.155979,762.273697 L263.980718,768.270218 L263.318787,768.665477 L262.575618,769.101559 C262.330844,769.243662 262.089016,769.382509 261.850133,769.518098 L261.142313,769.915093 L260.452143,770.292543 C259.770791,770.660219 259.115886,770.998575 258.487352,771.307604 L257.867605,771.606856 C255.321928,772.813005 253.23362,773.509954 251.597093,773.697195 C246.618899,774.266768 242.618751,774.185789 239.591241,773.448016 L239.291732,773.372049 L239.009558,773.293945 L235.540953,780.448276 L235.244279,780.356282 C230.261495,778.811208 225.494398,775.972692 220.943878,771.844564 C216.698716,767.993448 213.551449,762.953321 211.502097,756.730522 L211.426287,756.497813 L203.624986,757.094406 L203.537602,756.81999 C201.873918,751.59544 201.561941,744.669473 202.593744,736.037657 C203.139923,731.468452 205.153748,726.032312 208.631398,719.722865 L209.027804,719.010422 L205.202455,715.814715 L203.937816,714.77247 L203.09557,714.090001 L202.787431,713.846041 L202.500105,713.626374 L202.3754,713.539213 C202.434344,713.574982 202.446096,713.580371 202.554723,713.569221 L202.416426,713.530727 C202.261283,713.484388 202.21532,713.450027 202.184525,713.33204 L202.162805,713.226376 C202.159169,713.205654 202.155403,713.183252 202.151323,713.158984 L202.181971,713.04245 L202.202169,713.002388 L202.254492,712.918966 L202.329448,712.817817 L202.430812,712.690709 L202.560163,712.534982 L202.882503,712.160455 L203.274483,711.718027 L203.822531,711.114591 L204.1915,710.71854 L204.502021,710.396456 L204.604897,710.29513 C204.634132,710.26714 204.659522,710.243706 204.682119,710.224125 L204.747045,710.17309 L204.8045,710.139575 L204.844619,710.121525 C204.85727,710.117402 204.871587,710.114726 204.894727,710.112159 L204.997774,710.103448 Z M253.801434,707.30111 L257.773601,701 L258.022954,701.053105 C264.438543,702.419453 269.779487,705.044316 274.03889,708.928049 C279.666182,714.059025 284.060796,719.848516 287.221598,726.296876 L287.505545,726.884906 L287.681871,727.261097 L297.810376,727.19957 L298,732.225566 L284.800446,732.187725 L284.711668,731.953435 C281.675203,723.940073 277.903272,717.964726 273.402523,714.023422 C269.195648,710.339462 264.839173,707.582666 260.335003,705.752059 L259.833932,705.55247 L259.584672,705.456569 L254.830379,711.817839 L254.584619,711.742743 C248.832029,709.984927 243.02274,709.811641 237.149805,711.222782 C233.385467,712.127272 229.362955,714.349669 225.087448,717.894325 L224.685878,718.23051 L224.538836,718.355268 L229.017883,724.903859 L228.833459,725.115352 C228.536541,725.455848 228.249183,725.790022 227.971387,726.117862 L227.428545,726.765091 L226.911205,727.395408 C226.743009,727.602693 226.579064,727.807155 226.419371,728.008792 L225.953047,728.605223 C224.214369,730.859021 223.038055,732.738692 222.425076,734.239058 C222.025387,735.217364 221.683572,736.479036 221.400487,738.022743 L221.290388,738.655265 C221.094288,739.842454 220.929835,741.18122 220.797363,742.671039 L220.72828,743.498644 C220.706311,743.779504 220.685402,744.065355 220.665553,744.356192 L220.632051,744.869259 L227.02269,745.008124 L227.042931,745.342258 C227.245284,748.682697 228.022768,751.594825 229.373325,754.082005 C230.655112,756.442538 232.325974,758.454855 234.387588,760.121151 L234.474628,760.189552 L234.673774,759.917189 L235.393068,758.89248 L236.318391,757.540838 L237.322961,756.05136 L237.681783,755.515476 L237.991187,755.754103 C239.994044,757.298792 241.806632,758.197422 243.422929,758.457473 C244.840534,758.685555 246.07766,758.765481 247.129149,758.698959 L247.255364,758.688774 L246.757442,755.951047 L250.335863,755.893822 L252.016019,761.184968 L251.689822,761.305067 C249.264129,762.198157 246.920696,762.534658 244.662622,762.311559 C242.816377,762.129149 240.847755,761.587751 238.754158,760.688114 L238.333771,760.50341 L238.187422,760.435927 L235.045545,764.724138 L234.755581,764.534521 C230.998233,762.077474 228.315016,759.488487 226.71014,756.762122 C225.292216,754.35335 224.301311,751.859198 223.7378,749.277692 L223.63715,748.792635 L223.600974,748.599038 L217.117888,748.3602 L217.093351,748.036451 C216.661586,742.33947 216.939463,737.935756 217.934943,734.817124 C218.870708,731.88557 220.951161,728.489157 224.174783,724.618451 L224.490315,724.242385 L224.614682,724.096017 L218.702596,716.817278 L218.907653,716.586891 C222.904465,712.096389 228.495996,709.050337 235.670917,707.446594 C240.991015,706.257442 246.707509,706.153856 252.82022,707.134459 L253.432812,707.236133 L253.801434,707.30111 Z M250.820729,736.152569 L251.432815,735.758621 L252.267933,735.774823 L253.871394,738.821818 L255.717125,739.78617 L255.842106,740.376783 L256.680228,740.43092 L256.602564,741.620467 L257.011135,742.217867 L258.952688,742.710758 L258.95829,743.133017 L259.931034,743.699313 L257.542646,744.680794 L256.644547,745.668788 L256.539471,745.74884 L255.594755,746.22857 L255.098729,747.489881 L254.234043,748.227372 L253.407611,748.406096 L252.686105,750.145001 L251.071039,750.367173 L250.922408,750.357905 L249.69087,750.028315 L249.568936,749.970394 L248.822779,749.429799 L248.453961,749.433394 L248.00352,750.474889 L247.924839,750.588922 L246.828719,751.651489 L246.016593,752.204789 L243.878784,752.310345 L243.632686,751.171092 L244.009,750.500949 L243.785206,749.605209 L242.569262,748.265951 L242.551724,742.951322 L244.278436,742.885718 L244.279041,736.6758 L248.793427,736.105982 L249.280673,736.775849 L250.434716,736.014064 L250.820729,736.152569 Z" id="Shape-Copy-2"></path>
        </g>
    </g>
</svg>