<?xml version="1.0" encoding="UTF-8"?>
<svg width="797px" height="837px" viewBox="0 0 797 837" version="1.1" xmlns="http://www.w3.org/2000/svg" xmlns:xlink="http://www.w3.org/1999/xlink">
    <title>Group 15</title>
    <g id="Page-1" stroke="none" stroke-width="1" fill="none" fill-rule="evenodd">
        <g id="Group-15" transform="translate(2.000000, 2.000000)" stroke="#979797">
            <path d="M98.5,51.5 L124.5,72.5 L84.8474997,86.9896595 L126.13257,107.647224 L158.45084,85.5769562 L161.987966,129.063203 L126.13257,111.042113 L88.2933791,132.351281 L112.190177,175 L120.788237,142 L156.366137,189 L156.366137,138.189416 L178.991395,151 L184.408725,195.501047 L164.29166,168.932887 L121.876748,183.230066 L170.5,207.072117 L130.707217,228.576122 L105.610802,195.501047 L88.2933791,239.951281 L146.665611,269.131761 L145.457943,227.585834 L193,248.39637 L166.000345,283.980711 L136.778835,307 C118.304198,284.287569 109.066879,272.931353 109.066879,272.931353 C109.066879,272.931353 107.914854,293.418055 105.610802,334.391458 L176.99257,332.022818 L166.740274,296.739589 L220,302 L214.5,223.499901 L233.554841,186 L214.5,168.932887 L203,124 L178.991395,69 L143,57 L214.5,52 L256,51.5 L214.5,73 L242.000452,119 L269,85.5769562 L283,52 L300.5,111.042113 L248,143 C283.666667,148.333333 301.333333,151 301,151 C300.666667,151 287.333126,164.98191 260.999377,192.945729 L308,234.5 L244,226 L246,266 L320,271.5 L323,192.945729 L346,151 L320,116 L335,69 L394,52 L412,27.3592657 L443,72.5 L412,88 L370.5,80.8793496 L357,119 L367.336056,123.451599 L388,132.351281 L419,107.647224 L463,103.999785 L473,69 L491.5,134.99893 L447,138.189416 L399,162 L374.648761,138.189416 L364,188.999801 L335,183.230066 L349,224 L332,228.576122 L382.500087,201.332171 L374.648761,256.99978 L338.000302,252.154641 L349,298 L383.199623,277.968685 L419,256.99978 L412,186 L463,183.230066 L478,143 L508,175 L535.5,155.861419 L525,207.997553 L565,189 L548.5,236.499651 L611.420963,214 L585.46778,256.99978 L637.584919,248.39637 L626,277.738465 L611.420963,311 L659.165677,310 L646.605973,360 L709.689534,346 L693.738803,382 L763.050081,384 L670,405.5 L727.505389,427 L637.584919,434.5 L672.663124,469.448445 L595,461 L620.494228,509.999151 L547,489.537135 L590,544 L512,527.000363 L580.277729,581 L499.5,576.000181 L542.5,618 L473,594.093183 L491.5,649 L435,630.000445 L478,705.559759 L416,667.146314 L419,725 L382.5,667.146314 L354,713.113078 L345,643.218767 L301,684.764925 L291,612.022165 L260.999377,676.000651 L220,618 L242.000452,698.398028 L176.99257,684.764925 L227.5,733.500485 L158.45084,720 L203,778.096572 L126.13257,761.580212 C146.710857,795.860071 155.5,813 152.5,813 C149.5,813 133.870267,801.365524 105.610802,778.096572 L68.1203171,778.096572 L124.5,754.636031 L98.5,698.398028 C86.9699981,717.390624 80.3033314,724.591281 78.5,720 C76.6966686,715.408719 83.1966686,694.075385 98,656 L32.4549607,656 L56.6580706,594.093183 L0,589.32373 L60.4456314,549 C20.1593474,522.999434 1.01350454,509.999151 3.00810272,509.999151 C5.00270091,509.999151 25.6666667,494.999434 65,465 L0,452 L56.6580706,413.999871 L49.5,377.857657 L156.366137,427 C152.936156,397 148.81411,382 144,382 C139.18589,382 119.46839,370 84.8474997,346 L169.5,361 L233.554841,369 L203,308 L260.999377,334.391458 L273,272.931353 L285,348.5 L331,318 L419,315 L429.5,272.931353 C469.500081,270.398292 489.500121,269.131761 489.500121,269.131761 C489.500121,269.131761 480.333414,248.445213 462,207.072117 L517.001986,228.576122 L531.54838,272.5 L590,269.131761 L582.872755,287.5 L542,330 L596.377434,341.415943 L599.890812,407 L651.5,403 L538,346 L542.5,418.000109 L611.420963,434.5 L479.999457,350.5 L456,438 L577.5,477 L442,516 L531.54838,509.999151 L500.5,415.284135 L370.5,483 L465.5,490.556913 L512,330 L447,239.951281 L437,382 L385.5,295 L479.999457,323 L381.525041,455 L308,295 L491.5,477 L473,567 L23,544 L114,387 L397.562501,622 L84,630.000445 L301,356 L75.7950029,491.576691 L455,541.5 L180,387.000217 L383.199623,392 L130.707217,694.110852 L158.45084,463 L313,420.179633 L290,581.717125 L173.5,582 L269,469.448445 L429.5,602 L364,667.146314 L381.525041,323 L243,69 L98.5,51.5 Z" id="Line" stroke-linecap="square"></path>
            <path d="M446.327851,1.097644 L442.913551,8.704144 L449.421071,25.480644 L476.948071,63.976144 L503.874841,101.463444 L509.849858,126.366555 L555.303598,178.744306 L570.659978,192.385946 L595.647978,199.058593 L608.922278,205.556804 L615.874378,219.224624 L616.076578,242.804624 L651.179178,242.832382 L653.168738,262.754582 L649.746799,293.239042 L660.481971,306.255442 L673.700642,328.110092 L685.581062,341.092632 L722.909562,346.711122 L725.218471,343.917855 L767.086082,361.896152 C764.126808,368.155114 763.177528,373.402081 764.238242,377.637052 C765.298956,381.872023 771.432889,384.600973 782.640042,385.823902 L785.538762,390.611812 L791.998362,396.233312 L783.391662,395.552622 L776.683562,398.721392 L766.456562,399.297122 L759.053871,407.508642 L759.705231,413.920442 L756.534861,419.447852 L755.023761,420.619352 L749.451661,420.278236 L748.150471,423.237136 L722.060371,432.617045 L716.727471,431.226345 L702.279034,433.906683 L699.875478,439.789725 L696.189371,439.789725 L672.663124,469.448445 L590.625225,536.837101 L580.700375,585.808111 L569.232065,592.094911 L551.659205,608.141361 L543.064915,621.519061 L543.034045,621.51443 L510.041345,628.18865 L497.770385,632.24657 L490.548207,667.96347 L474.014047,713.62197 L444.740695,728.98768 C443.301091,724.094639 437.973608,722.672043 428.758247,724.71989 C414.935205,727.791661 407.989424,735.161494 401.447482,735.541774 C397.086187,735.795294 392.809475,733.610596 388.617347,728.98768 C380.312586,729.278717 373.61322,728.292927 368.519247,726.03031 C360.878288,722.636384 361.666717,718.490611 355.382347,714.22551 C351.192767,711.38211 346.185067,712.279939 340.359247,716.918997 C306.298054,687.454491 281.494342,672.722238 265.948111,672.722238 C250.401879,672.722238 234.062562,704.769131 216.93016,768.862917 L215.48076,769.457177 L211.64666,768.620587 L208.96556,769.117597 C191.756451,788.419695 180.01422,800.529878 173.738867,805.448147 C167.204749,810.569222 159.732773,813.518056 151.32294,814.294647 C153.54294,819.570847 153.36284,823.222347 150.78271,825.248647 C148.20261,827.275347 145.44841,829.125447 142.52021,830.799147 C133.83091,827.185147 125.83921,825.951847 118.54521,827.099347 C107.60421,828.820547 105.87321,832.311147 96.70721,831.016747 C87.54181,829.722447 80.84721,825.078747 78.55721,824.830347 C77.03071,824.664707 70.91371,827.556247 60.20621,833.504947 L55.80411,826.418647 C54.07361,824.250547 52.92201,821.553347 52.34921,818.327147 C51.77641,815.100947 52.75054,810.808047 55.27161,805.448147 L51.75501,798.965947 L72.93901,761.688947 C77.87501,740.224947 77.44741,722.552947 71.65631,708.671947 C65.86521,694.790947 52.86731,678.166947 32.66431,658.800947 L11.87631,645.206947 L0.25931,632.648947 L0,379.268947 L83.972,379.268947 L84.23285,47.778947 L126.54185,46.014747 L253.78185,21.156747 L280.09735,19.284457 L305.398788,61.933367 L370.726648,15.01217 L382.585588,24.7488 L421.349458,0.44447 L428.758247,6.23996364 L437.388128,0 L446.332828,1.091306 L446.327851,1.097644 Z" id="Path" stroke-width="2"></path>
        </g>
    </g>
</svg>