<?xml version="1.0" encoding="UTF-8"?>
<svg width="18px" height="40px" viewBox="0 0 18 40" version="1.1" xmlns="http://www.w3.org/2000/svg" xmlns:xlink="http://www.w3.org/1999/xlink">
    <title>Path Copy 10</title>
    <defs>
        <linearGradient x1="50%" y1="3.67761377e-14%" x2="50%" y2="100%" id="linearGradient-1">
            <stop stop-color="#00EBF2" offset="0%"></stop>
            <stop stop-color="#FF0000" offset="100%"></stop>
        </linearGradient>
    </defs>
    <g id="Page-1" stroke="none" stroke-width="1" fill="none" fill-rule="evenodd">
        <path d="M10.9970574,31.005658 C10.996986,33.8257197 12.4594825,36.4362471 14.8466348,37.91165 L15.0968579,38.060191 C15.9548221,38.5490064 16.9264596,39.1963928 18,40.00235 L0,40.00235 C0.93934787,39.2971374 1.79617047,38.7133309 2.57046781,38.25093 L2.89725696,38.060191 C5.43203148,36.6160346 6.99713129,33.9229632 6.99705743,31.005658 L6.99705743,8.99669176 C6.99713129,6.07938657 5.43203148,3.38631538 2.89725696,1.94215897 C2.03929274,1.45334353 1.07354042,0.805957206 0,0 L18,0 C16.9264596,0.805957206 15.9548221,1.45334353 15.0968579,1.94215897 C12.5620834,3.38631538 10.9969836,6.07938657 10.9970574,8.99669176 L10.9970574,31.005658 Z" id="Path-Copy-10" fill="url(#linearGradient-1)"></path>
    </g>
</svg>