<?xml version="1.0" encoding="UTF-8"?>
<svg width="30px" height="27px" viewBox="0 0 30 27" version="1.1" xmlns="http://www.w3.org/2000/svg" xmlns:xlink="http://www.w3.org/1999/xlink">
    <title>Group 5 Copy</title>
    <g id="Page-1" stroke="none" stroke-width="1" fill="none" fill-rule="evenodd">
        <g id="Group" transform="translate(0.000000, -0.000000)">
            <g id="Group-8-Copy-3" fill="#00EBF2">
                <path d="M6.00294257,27.0033082 C2.35792886,24.2668253 0,19.9087745 0,15 C0,6.71572875 6.71572875,0 15,0 L15.3138282,0.00321775869 C23.4532136,0.170269778 30,6.82059295 30,15 C30,19.9087745 27.6420711,24.2668253 23.9970574,27.0033082 L6.00294257,27.0033082 Z" id="Combined-Shape"></path>
            </g>
            <g id="1" transform="translate(12.212000, 10.444000)" fill="#FFFFFF" fill-rule="nonzero">
                <path d="M0.66,8.556 C0.452,8.556 0.29,8.498 0.174,8.382 C0.058,8.266 0,8.108 0,7.908 C0,7.7 0.058,7.544 0.174,7.44 C0.29,7.336 0.452,7.284 0.66,7.284 L2.004,7.284 L2.004,1.392 L2.748,1.392 L0.984,2.46 C0.832,2.548 0.69,2.582 0.558,2.562 C0.426,2.542 0.314,2.486 0.222,2.394 C0.13,2.302 0.068,2.192 0.036,2.064 C0.004,1.936 0.014,1.806 0.066,1.674 C0.118,1.542 0.22,1.432 0.372,1.344 L2.028,0.348 C2.188,0.252 2.348,0.17 2.508,0.102 C2.668,0.034 2.816,0 2.952,0 C3.12,0 3.26,0.046 3.372,0.138 C3.484,0.23 3.54,0.38 3.54,0.588 L3.54,7.284 L4.764,7.284 C4.972,7.284 5.134,7.336 5.25,7.44 C5.366,7.544 5.424,7.7 5.424,7.908 C5.424,8.116 5.366,8.276 5.25,8.388 C5.134,8.5 4.972,8.556 4.764,8.556 L0.66,8.556 Z" id="Path"></path>
            </g>
        </g>
    </g>
</svg>